<?xml version="1.0" encoding="UTF-8" standalone="no"?>
<svg
   xmlns:dc="http://purl.org/dc/elements/1.1/"
   xmlns:cc="http://creativecommons.org/ns#"
   xmlns:rdf="http://www.w3.org/1999/02/22-rdf-syntax-ns#"
   xmlns:svg="http://www.w3.org/2000/svg"
   xmlns="http://www.w3.org/2000/svg"
   xmlns:sodipodi="http://sodipodi.sourceforge.net/DTD/sodipodi-0.dtd"
   xmlns:inkscape="http://www.inkscape.org/namespaces/inkscape"
   width="256"
   height="256"
   class="octicon octicon-broadcast"
   viewBox="0 0 16 16"
   version="1.1"
   aria-hidden="true"
   id="svg4"
   sodipodi:docname="favicon.svg"
   inkscape:version="0.92.2 5c3e80d, 2017-08-06"
   inkscape:export-filename="/Users/fhanes/projects/atem-live-controller/public/favicon.png"
   inkscape:export-xdpi="96"
   inkscape:export-ydpi="96">
  <metadata
     id="metadata10">
    <rdf:RDF>
      <cc:Work
         rdf:about="">
        <dc:format>image/svg+xml</dc:format>
        <dc:type
           rdf:resource="http://purl.org/dc/dcmitype/StillImage" />
        <dc:title></dc:title>
      </cc:Work>
    </rdf:RDF>
  </metadata>
  <defs
     id="defs8" />
  <sodipodi:namedview
     pagecolor="#ffffff"
     bordercolor="#666666"
     borderopacity="1"
     objecttolerance="10"
     gridtolerance="10"
     guidetolerance="10"
     inkscape:pageopacity="0"
     inkscape:pageshadow="2"
     inkscape:window-width="1440"
     inkscape:window-height="878"
     id="namedview6"
     showgrid="false"
     inkscape:zoom="0.921875"
     inkscape:cx="22.779661"
     inkscape:cy="128"
     inkscape:window-x="0"
     inkscape:window-y="0"
     inkscape:window-maximized="1"
     inkscape:current-layer="svg4" />
  <circle
     style="fill:#de1c1c;fill-opacity:1;stroke:none;stroke-width:0.03250034;stroke-miterlimit:4;stroke-dasharray:none;stroke-opacity:1"
     id="path827"
     cx="8"
     cy="8"
     r="8" />
  <path
     d="M 9.3620146,9.627845 H 8.4549928 c 0.498862,0 0.9070218,-0.4081596 0.9070218,-0.9070216 V 7.8138017 c 0,-0.498862 -0.4081598,-0.9070218 -0.9070218,-0.9070218 H 7.547971 c -0.498862,0 -0.9070218,0.4081598 -0.9070218,0.9070218 v 0.9070217 c 0,0.498862 0.4081598,0.9070216 0.9070218,0.9070216 H 6.6409492 c -0.498862,0 -0.9070218,0.40816 -0.9070218,0.907022 v 1.814043 h 0.9070218 v 1.837289 c 0,0.498862 0.4081598,0.907021 0.9070218,0.907021 h 0.9070218 c 0.498862,0 0.9070218,-0.408159 0.9070218,-0.907021 V 12.34891 h 0.9070214 v -1.814043 c 0,-0.498862 -0.4081593,-0.907022 -0.9070214,-0.907022 z"
     id="path825"
     style="fill:#ffffff;stroke-width:0.90702176"
     inkscape:connector-curvature="0"
     sodipodi:nodetypes="scsssssscssccssssccss" />
  <path
     sodipodi:type="inkscape:offset"
     inkscape:radius="0"
     inkscape:original="M 8.0019531 3.4902344 C 5.5219531 3.4902344 3.5019531 5.5102344 3.5019531 7.9902344 C 3.5019531 9.0602344 3.8919531 10.019063 4.5019531 10.789062 L 4.5019531 8.8105469 A 3.593 3.593 0 0 1 8.0019531 4.4101562 C 9.9819531 4.4101562 11.591797 6.02 11.591797 8 C 11.591797 8.28 11.561953 8.5405469 11.501953 8.8105469 L 11.501953 10.789062 C 12.111953 10.019063 12.501953 9.0502344 12.501953 7.9902344 C 12.501953 5.5102344 10.481953 3.4902344 8.0019531 3.4902344 z "
     style="fill:#000000;stroke:#000000;stroke-width:0.68124998;stroke-miterlimit:4;stroke-dasharray:none;stroke-opacity:1"
     id="path819"
     d="m 8.0019531,3.4902344 c -2.48,0 -4.5,2.02 -4.5,4.5 0,1.07 0.39,2.0288286 1,2.7988276 V 8.8105469 a 3.593,3.593 0 0 1 3.5,-4.4003907 c 1.98,0 3.5898439,1.6098438 3.5898439,3.5898438 0,0.28 -0.02984,0.5405469 -0.08984,0.8105469 v 1.9785151 c 0.61,-0.769999 1,-1.7388276 1,-2.7988276 0,-2.48 -2.02,-4.5 -4.4999999,-4.5 z"
     transform="matrix(0.93706484,0,0,0.93706484,0.50360417,0.4694076)" />
  <path
     d="m 14.8966,7.96669 c 0,2.647946 -1.498664,4.946511 -3.677704,6.095794 V 13.097086 A 6.0249981,6.0249981 0 0 0 14.059923,7.96669 6.0590169,6.0590169 0 0 0 8.0009056,1.9076731 6.0590169,6.0590169 0 0 0 1.9418887,7.96669 c 0,2.169845 1.1308939,4.063862 2.8410262,5.130396 v 0.965398 A 6.8929362,6.8929362 0 0 1 8.0009056,1.0709955 c 3.8064234,0 6.8956944,3.0892711 6.8956944,6.8956945 z"
     id="path2"
     style="fill:#ffffff;fill-opacity:1;stroke:#ffffff;stroke-width:0.12067465;stroke-miterlimit:4;stroke-dasharray:none;stroke-opacity:1"
     inkscape:connector-curvature="0" />
</svg>
